<?xml version="1.0" encoding="utf-8"?>
<!-- Generator: Adobe Illustrator 24.3.0, SVG Export Plug-In . SVG Version: 6.00 Build 0)  -->
<svg version="1.1" id="Calque_1" xmlns="http://www.w3.org/2000/svg" xmlns:xlink="http://www.w3.org/1999/xlink" x="0px" y="0px"
	 viewBox="0 0 841.89 595.28" style="enable-background:new 0 0 841.89 595.28;" xml:space="preserve">
<style type="text/css">
	.st0{fill:none;}
	.st1{fill:#8786BB;}
	.st2{fill:url(#SiteLucas);}
</style>
<pattern  width="139.76" height="144.35" patternUnits="userSpaceOnUse" id="SiteLucas" viewBox="0 -144.35 139.76 144.35" style="overflow:visible;">
	<g>
		<rect y="-144.35" class="st0" width="139.76" height="144.35"/>
		<g transform="translate(0.000000,512.000000) scale(0.100000,-0.100000)">
			<path class="st1" d="M174.09,5884.28c20.4,2.42,19.23,2.99,21.27-11.54l1.5-10.64l5.12,0.13c26,0.48,51.7-13.77,65.25-36.18
				c3.35-5.6,8.27-17.81,8.74-21.79c0.24-2.02,0.63-2.61,1.72-2.48c0.86,0.1,3.79-0.66,6.52-1.68c5.11-1.84,9.56-5.34,12.73-10.1
				c1.83-2.78,7.53-19.56,8.01-23.61c0.62-5.93-3.62-13.46-8.56-15.07c-1.75-0.52-2.23-1.21-2.23-3.19
				c-0.08-1.35,2.17-38.28,4.9-82.02s4.73-80.54,4.4-81.77c-0.7-2.77-4.17-4.84-7.09-4.16c-4.38,0.98-4.32,0.44-7.31,50.39
				c-1.52,25.49-2.88,47.59-3.07,49.23l-0.34,2.88l-33.49-3.97l-33.49-3.97l1.74-14.64c1.54-13.01,1.61-14.89,0.56-16.04
				c-3.35-3.71-27.19-23.76-28.87-24.27c-1.36-0.48-2.74-0.17-4.35,0.75l-2.3,1.39l-2.86,24.14l-2.85,24.06l-11.6-1.38
				c-6.39-0.76-12.58-1.17-13.8-0.85c-2.85,0.69-5.34,5.05-4.38,7.62c1.47,3.57,2.46,3.92,15.3,5.52l12.23,1.45l-1.62,13.63
				l-1.62,13.63l-34.34-4.07l-34.34-4.07l1.73-10.61c1.01-5.88,2.13-11.99,2.55-13.52l0.82-2.9l9.66,1.14
				c9.27,1.1,9.82,1.08,11.83-0.57c2.78-2.12,3.1-4.84,1.02-7.93c-1.62-2.32-1.92-2.44-11.22-3.94l-9.53-1.52l13.14-74.26
				c14.51-81.83,13.5-77.92,18.91-78.31c3.74-0.27,146.42,17.27,147.74,18.14c2.57,1.65,2.88,4.37,2.01,17.69
				c-0.53,9.1-0.55,13.99,0.09,15.25c1.89,4.02,7.91,3.86,10.28-0.12c1.68-2.88,2.9-29.11,1.57-33.22
				c-1.41-4.12-6.59-9.7-10.07-10.99l-2.8-1.04l0.65-8.85c0.56-8.07,0.51-8.94-1.04-10.55s-3.95-1.97-71.55-9.98
				s-70.02-8.22-71.9-7.02s-2.14,2.04-3.48,10.01l-1.43,8.75l-3.21,0.41c-4.8,0.54-11.72,6.27-13.4,11.13
				c-0.73,2.13-9.58,50.83-19.7,108.23c-10.13,57.48-18.66,105.51-19.05,106.8c-0.46,1.92-1.08,2.48-2.91,2.58
				c-5.18,0.41-11.07,6.74-11.84,12.65c-0.53,4.44,1.13,21.77,2.52,25.41c0.65,1.81,2.13,4.67,3.28,6.31
				c2.09,3.01,9.86,8.75,12.28,9.04c1.01,0.12,1.29,1.1,1.26,4.73c-0.36,33.05,25.22,64.43,58.39,71.75l5.01,1.07l-1.03,10.7
				c-1,10.46-1.03,10.7,0.81,12.49C158.6,5882.37,159.76,5882.59,174.09,5884.28z M183.26,5873.53l-7.79-0.92l-7.79-0.92l0.74-6.23
				l0.74-6.23l7.79,0.92l7.79,0.92l-0.74,6.23L183.26,5873.53z M158.95,5845.37l-3.26-0.47c-8.31-1.14-20.64-7.1-28-13.66
				c-12.09-10.59-19.53-24.43-21.58-39.83c-1.37-10.43-5-9.75,29.5-5.67l29.98,3.55l-3.32,28.04L158.95,5845.37z M186.21,5848.6
				l-7.79-0.92l-7.79-0.92l3.32-28.04l3.32-28.04l7.79,0.92l7.79,0.92l-3.32,28.04L186.21,5848.6z M200.85,5850.34l-2.96-0.35
				l3.31-27.96l3.31-27.96l7.9,0.62c7.51,0.57,8.07,0.56,10.02-1.26c2.66-2.45,2.88-4.32,0.87-7.32c-1.54-2.31-2-2.45-9.45-3.57
				l-7.83-1.24l1.87-14.47l1.96-14.54l28.84,3.18c15.91,1.73,34.5,4.09,41.4,5.14c11.31,1.81,12.61,2.21,12.84,3.58
				c0.56,2.59-4.98,18.05-7.47,21.07c-3.87,4.67-4.03,4.66-23.24,2.85l-17.49-1.68l-2.13,1.96c-2.66,2.45-2.88,4.32-0.87,7.32
				c1.61,2.4,1.69,2.41,12.17,3.89c12.19,1.76,11.49,0.97,7.94,10.26c-8.54,22.05-28.18,37.25-51.65,40
				C206.7,5850.32,202.41,5850.52,200.85,5850.34z M167.08,5776.84l-36.37-4.31c-34.73-4.12-36.52-4.41-38.52-6.14
				c-3.53-2.87-4.83-7.21-5.6-17.41c-0.7-9.4-0.68-9.56,0.93-10.47c1.36-0.79,8.31-0.12,42.16,4.05l40.47,5.03l-1.5,14.67
				L167.08,5776.84z M194.33,5780.07l-7.79-0.92l-7.79-0.92l1.71-14.41l1.71-14.41l7.79,0.92l7.79,0.92l-1.71,14.41L194.33,5780.07z
				 M172.04,5735.58l-35.67-4.23l-35.67-4.23l1.19-6.73l1.2-6.81l35.05,4.15l35.05,4.15l-0.58,6.88L172.04,5735.58z M199.22,5738.8
				l-7.79-0.92l-7.79-0.92l0.78-6.62l0.78-6.62l7.79,0.92l7.79,0.92l-0.78,6.62L199.22,5738.8z M282.16,5748.63l-35.67-4.23
				l-35.67-4.23l1.04-6.75l1.05-6.83l35.05,4.15l35.05,4.15l-0.42,6.9L282.16,5748.63z M202.27,5713.1l-7.79-0.92l-7.79-0.92
				l1.62-13.63l1.62-13.63l7.79,0.92l7.79,0.92l-1.62,13.63L202.27,5713.1z M270.96,5721.24l-28.11-3.33l-28.11-3.33l1.62-13.63
				l1.62-13.63l27.18,3.22l27.18,3.22l0.02,3.79c-0.01,2.05-0.34,8.17-0.68,13.74L270.96,5721.24z M206.98,5673.38l-7.79-0.92
				l-7.79-0.92l1.98-16.74c1.09-9.19,2.14-16.73,2.3-16.71c0.16,0.02,3.38,2.77,7.18,6.06l6.88,5.95l-1.38,11.68L206.98,5673.38z
				 M281.24,5513.18l-62.3-7.38l-62.3-7.38l0.51-4.28l0.51-4.28l62.3,7.38l62.3,7.38l-0.51,4.28L281.24,5513.18z"/>
			<path class="st1" d="M155.95,5588.83c6.33-2.09,9.22-5.86,10.09-13.18c0.59-4.98,0.48-6.02-1.27-9.23
				c-5.26-9.63-18.34-11.18-25.7-3.05c-2.45,2.71-2.81,3.69-3.4,8.68c-0.86,7.24,0.88,11.24,6.59,15
				C147.11,5590.16,150.45,5590.63,155.95,5588.83z M150.43,5577.44c-1.56-0.18-3.66-2.41-3.52-3.65c0.42-3.58,6.01-4.74,7.29-1.51
				c0.84,2.23,0.67,3-0.97,4.23C152.52,5577.14,151.21,5577.53,150.43,5577.44z"/>
			<path class="st1" d="M202.36,5568.43c-5.82-6.85-14.95-7.77-21.87-2.04c-7.08,5.79-8.07,14.76-2.44,21.9
				c1.57,2.08,4.01,4.19,5.43,4.83C199.12,5599.72,213.15,5581.32,202.36,5568.43z M189.76,5582.1c-0.93-0.11-1.98-0.63-2.46-1.24
				c-0.48-0.61-0.74-1.75-0.63-2.68s0.63-1.98,1.24-2.46c0.61-0.48,1.75-0.74,2.68-0.63c0.93,0.11,1.98,0.63,2.46,1.24
				c0.48,0.61,0.74,1.75,0.63,2.68s-0.63,1.98-1.24,2.46C191.83,5581.95,190.69,5582.21,189.76,5582.1z"/>
			<path class="st1" d="M239.42,5595.57c7.14-5.63,8.28-14.58,2.75-21.87c-4.1-5.38-10.08-7.59-16.21-5.79
				c-6.2,1.71-11.3,7.43-12.02,13.5c-0.74,6.23,3.17,13.25,8.84,16.05C228.66,5600.37,234.18,5599.76,239.42,5595.57z
				 M229.48,5586.81c-2.1-0.25-3.34-1.82-3.09-3.92c0.25-2.1,1.82-3.34,3.92-3.09c3.12,0.37,4.29,4.46,1.85,6.38
				C231.55,5586.66,230.41,5586.92,229.48,5586.81z"/>
			<path class="st1" d="M275.99,5602.11c12.87-5.98,12.06-23.76-1.22-29.05c-10.03-3.95-20.59,3.17-21.11,14.24
				c-0.25,6.13,1.85,10.41,7.05,13.79C265.69,5604.45,270.31,5604.76,275.99,5602.11z M268.8,5591.47
				c-1.56-0.18-3.66-2.41-3.52-3.65c0.42-3.58,6.01-4.74,7.29-1.51c0.84,2.23,0.67,3-0.97,4.23
				C270.89,5591.16,269.58,5591.56,268.8,5591.47z"/>
			<path class="st1" d="M191.21,5536.55c-0.64-12.63-14-19.82-24.51-13.09c-6.42,4.21-8.76,11.28-6.15,18.62
				c1.54,4.29,3.56,6.58,7.64,8.8C178.21,5556.25,191.77,5547.83,191.21,5536.55z M172.54,5538.84c-1.17-1.48-0.68-4.27,0.86-5.27
				c3.25-2.06,7.23,2.99,4.46,5.66C176.53,5540.49,173.7,5540.32,172.54,5538.84z"/>
			<path class="st1" d="M213.89,5557.08c5.41,0.33,10.42-2,13.79-6.42c3-3.99,3.62-11.89,1.3-16.27
				c-5.48-10.44-18.8-11.94-26.57-3.07c-3.11,3.58-4.37,10.85-2.62,15.48c1.26,3.39,4.38,7,7.71,8.89
				C208.53,5556.29,211.39,5556.87,213.89,5557.08z M214.32,5544.74c-3.27-0.39-4.46-3.69-2.08-5.77c0.88-0.76,2.21-1.32,2.91-1.23
				c0.7,0.08,1.86,0.93,2.54,1.88c1.01,1.46,1.02,2.02,0.13,3.57C216.95,5544.57,216.12,5544.95,214.32,5544.74z"/>
			<path class="st1" d="M267.25,5554.64c4.15-6.38,3.59-13.63-1.43-19.28c-8.31-9.2-23.53-5.39-27.11,6.82
				c-1.84,6.18,1.43,13.91,7.41,17.46C253.48,5564.15,262.43,5561.97,267.25,5554.64z M251.07,5547.91
				c-2.06-3.25,2.99-7.23,5.66-4.46c1.26,1.33,1.09,4.16-0.39,5.32C254.85,5549.93,252.07,5549.45,251.07,5547.91z"/>
		</g>
		<g transform="translate(0.000000,512.000000) scale(0.100000,-0.100000)">
			<path class="st1" d="M1084.98,6316.21c98.69,32.72,207.35-16.69,245.38-111.8c2.67-6.59,4.62-12.32,4.55-12.78
				c-0.04-0.56-4.31-2.26-9.47-3.92c-8.04-2.59-9.4-2.8-10.3-1.34c-0.59,0.8-2.98,4.85-5.28,8.93
				c-8.68,15.06-24.9,34.17-38.95,45.86c-15.07,12.46-38.54,25.51-57.44,31.81c-25.83,8.78-52.97,11.45-81.83,8.19
				c-16.15-1.91-50.99-12.78-64.19-20.09c-35.03-19.48-61.21-46.41-77.76-80.1c-9.88-20.04-13.77-32.47-17.02-53.01
				c-2.09-13.6-2.51-34.1-1.01-44.9l1.14-7.63l-9.73-3.13l-9.73-3.13l-1.09,3.38c-0.61,1.89-2.06,8.1-3.38,13.92
				c-9.83,46.24-3.42,91.02,19.19,133.12c10.7,19.87,20.43,32.86,36.33,48.48c18.53,18.01,35.4,29.24,62.71,41.74
				C1068.73,6310.55,1076.68,6313.43,1084.98,6316.21z"/>
			<path class="st1" d="M1046.08,6082.23c11.42,0.6,22.27-4.89,28.67-14.55c6-9.13,79.03-134.73,79.92-137.51
				c2.39-7.45-0.46-18-6.52-24c-3.43-3.29-28.26-21.13-30.64-21.9c-0.89-0.29-1.75-0.01-1.94,0.58c-0.16,0.5-0.62,0.57-1.12,0.08
				c-0.57-0.62-58.13,13.51-61.64,15.23c-0.26,0.13-13.31,25.73-29.01,56.83l-28.51,56.66l4.85,21.71
				c2.67,11.81,5.26,22.83,5.73,24.41c0.72,2.2,3.81,4.51,14.93,11.48C1036.44,6080.88,1038.52,6081.88,1046.08,6082.23z"/>
			<path class="st1" d="M1278.41,6154.08c12.87,0.85,16.99,0.64,19.05-0.67c1.41-0.97,10.03-8.38,18.98-16.46l16.3-14.58l9.72-62.27
				c9.18-57.84,9.76-62.36,8.14-65.18c-2.05-3.84-36.3-45.19-39.52-47.76c-1.93-1.5-5.66-1.82-21.19-1.88
				c-11.05-0.05-20.74,0.45-23.43,1.34c-5.62,1.81-12.57,8.77-14.39,14.43c-1.69,5.26-16.23,157.44-15.57,163.57
				c0.82,8.7,6.22,17.77,13.9,23.2C1256.33,6151.91,1261.02,6152.98,1278.41,6154.08z"/>
		</g>
		<g transform="translate(0.000000,512.000000) scale(0.100000,-0.100000)">
			<path class="st1" d="M401.24,6428.49c2.69-0.33,5.84-2.2,16.15-9.92c20.29-15.04,27.43-19.43,46.34-28.2
				c11.06-5.05,19.23-8.22,34.66-13.25c18.31-5.89,26.95-11.38,36.24-22.98c4.67-5.88,5.26-7.04,8.54-16.24
				c2.47-6.92,3.64-11.39,3.9-14.98c1.97-26.39-12.2-50.31-36.08-60.99c-4.96-2.2-6.23-2.48-9.56-2.04
				c-4.23,0.55-8.41,3.86-9.79,7.73c-2.12,5.93,1.55,13.41,7.63,15.59c8.06,2.88,17.05,11.32,20.53,19.34
				c8.67,19.9-1.23,42.08-21.84,49.13c-2.75,0.99-10.83,3.68-18.03,6.08c-12.55,4.18-41.5,17.07-50.76,22.59l-4.48,2.69l33.16-92.83
				c32.13-89.94,33.14-93.01,33.73-99.23c0.86-9.38-0.39-16.43-4.64-25.41c-9.16-19.48-29.05-30.27-50.54-27.23
				c-7.3,0.99-19.89,6.96-25.28,11.97c-8.93,8.21-14.46,19.35-15.55,31.05c-0.86,9.38,0.39,16.43,4.67,25.33
				c4.18,8.95,8.83,14.39,16.64,19.66c10.14,6.88,20.9,9.18,34.8,7.46c0.36-0.04-13.94,40.71-31.79,90.67l-32.4,90.7l0.69,3.59
				c0.34,1.92,1.61,4.61,2.79,5.88C393.65,6427.66,397.07,6428.89,401.24,6428.49z"/>
			<path class="st1" d="M726.96,6441.62c3.55,1.35,9.26,0.22,12.11-2.45c2.26-2.02,3.86-6.25,38.41-102.96
				c34.98-97.93,35.99-100.99,36.58-107.21c0.86-9.38-0.39-16.43-4.64-25.41c-9.16-19.48-29.05-30.27-50.54-27.23
				c-7.3,0.99-19.89,6.96-25.28,11.97c-8.93,8.21-14.46,19.35-15.55,31.05c-0.86,9.38,0.39,16.43,4.67,25.33
				c4.18,8.95,8.83,14.39,16.64,19.66c10.14,6.88,20.9,9.18,34.8,7.46c0.36-0.04-6.91,21.02-16.12,46.8
				c-13.28,37.18-16.96,46.75-17.56,46.28c-0.45-0.42-28.47-20.37-62.18-44.33l-61.38-43.7l25.83-72.3
				c24.85-69.57,25.86-72.64,26.43-78.78c0.86-9.38-0.39-16.43-4.64-25.41c-9.16-19.48-29.05-30.27-50.54-27.23
				c-7.3,0.99-19.89,6.96-25.28,11.97c-8.93,8.21-14.46,19.35-15.55,31.05c-0.86,9.38,0.39,16.43,4.67,25.33
				c4.18,8.95,8.83,14.39,16.64,19.66c10.14,6.88,20.9,9.18,34.8,7.46c0.36-0.04-11.99,35.24-27.44,78.5l-28.06,78.54l0.72,3.51
				c0.31,2,1.29,4.32,2.13,5.31c0.85,0.99,34.45,25.25,74.62,53.92C691.48,6417.12,725.54,6441.03,726.96,6441.62z"/>
		</g>
		<path class="st1" d="M82.17-55.36c17.78-2.16,21.52-2.59,21.83-2.49c0.57,0.16,1.13,0.73,1.35,1.36
			c0.14,0.38,0.69,4.67,1.83,14.11l1.64,13.55l2.98,2.81l2.98,2.81l-0.01,0.45c-0.04,0.97-0.61,1.98-1.47,2.59
			c-0.31,0.23-1.68,0.4-26.45,3.4s-26.15,3.15-26.5,3c-0.98-0.39-1.77-1.23-2.04-2.16l-0.12-0.43l2.23-3.44l2.23-3.43l-1.66-13.93
			c-1.51-12.74-1.64-13.97-1.5-14.29c0.18-0.45,0.62-0.98,0.96-1.17C60.61-52.71,68.22-53.68,82.17-55.36z M82.55-53.48
			c-20.06,2.4-19.25,2.28-19.65,2.86c-0.47,0.68-0.5,0.3,0.95,12.35l1.36,11.26l0.31,0.44c0.22,0.31,0.48,0.51,0.83,0.65l0.51,0.2
			l18.62-2.25l18.63-2.25l0.46-0.31c0.32-0.21,0.52-0.45,0.65-0.82l0.2-0.52l-1.36-11.28l-1.36-11.29l-0.3-0.46
			c-0.18-0.25-0.47-0.54-0.65-0.64C101.41-55.74,101.39-55.73,82.55-53.48z M93.32-22.54l-7.06,0.85l-7.06,0.85l-0.66,1l-0.65,1.01
			l4.3-0.49c2.37-0.27,6.23-0.74,8.59-1.04l4.29-0.55l-0.87-0.82L93.32-22.54z M82.24-18.17c-0.32,0.17-0.36,0.48-0.12,0.75
			l0.2,0.25l4.42-0.53l4.42-0.53l0.13-0.29c0.17-0.33,0.04-0.61-0.33-0.71C90.61-19.32,82.55-18.35,82.24-18.17z"/>
	</g>
</pattern>
<rect class="st2" width="841.89" height="595.28"/>
<g>
</g>
<g>
</g>
<g>
</g>
<g>
</g>
<g>
</g>
<g>
</g>
</svg>
