<?xml version="1.0" standalone="no"?>
<!DOCTYPE svg PUBLIC "-//W3C//DTD SVG 20010904//EN"
 "http://www.w3.org/TR/2001/REC-SVG-20010904/DTD/svg10.dtd">
<svg version="1.0" xmlns="http://www.w3.org/2000/svg"
 width="768.000000pt" height="2046.000000pt" viewBox="0 0 768.000000 2046.000000"
 preserveAspectRatio="xMidYMid meet">

<g transform="translate(0.000000,2046.000000) scale(0.100000,-0.100000)"
fill="#ffffff" stroke="none">
<path d="M4620 20454 c-182 -18 -439 -74 -575 -126 -125 -48 -182 -85 -285
-183 -52 -50 -116 -108 -142 -128 -119 -95 -156 -210 -178 -550 -12 -173 -2
-408 24 -567 l14 -85 -33 -27 c-18 -15 -38 -41 -45 -57 -24 -60 15 -181 59
-181 28 0 39 25 33 80 -7 78 13 65 46 -31 29 -85 30 -93 17 -130 -35 -97 -27
-247 17 -333 48 -94 100 -137 199 -162 56 -14 89 -13 157 7 7 2 22 -18 36 -52
67 -165 313 -428 425 -456 52 -13 101 45 71 83 -7 7 -25 14 -41 14 -34 0 -178
116 -251 202 -84 98 -178 249 -178 284 0 51 -19 59 -95 39 -73 -20 -119 -13
-169 26 -54 43 -71 93 -71 214 0 103 2 113 29 163 17 30 44 62 65 74 61 38
154 24 217 -34 18 -16 23 -17 33 -4 10 12 9 40 -3 136 -24 183 -40 164 127
158 133 -5 144 -7 181 -32 21 -14 47 -26 56 -26 29 0 66 -37 79 -79 6 -22 20
-45 31 -51 13 -7 21 -26 25 -58 16 -115 72 -224 145 -282 149 -118 349 -132
496 -34 92 61 143 150 179 312 22 93 29 110 62 144 42 43 97 63 156 55 62 -8
67 -18 67 -122 0 -50 6 -112 14 -137 l13 -45 -41 23 c-82 47 -121 19 -55 -40
22 -19 46 -51 54 -71 13 -31 14 -39 1 -70 -28 -65 -89 -69 -177 -9 -58 39 -93
43 -109 14 -17 -32 -4 -53 53 -87 97 -59 186 -63 252 -11 33 26 64 91 65 134
l0 30 46 -42 c80 -75 205 -96 315 -55 l52 20 -7 -77 c-37 -429 -259 -774 -581
-903 -235 -94 -470 -78 -717 47 -57 29 -78 30 -78 5 0 -27 88 -105 160 -141
103 -52 197 -71 345 -72 l130 0 24 -74 c35 -110 96 -186 138 -170 12 5 14 16
10 46 -5 39 -4 40 24 40 26 0 28 -2 19 -26 -6 -14 -10 -64 -10 -112 0 -273
-88 -521 -240 -672 -146 -147 -306 -198 -488 -155 -213 50 -574 329 -773 597
-102 138 -155 261 -166 384 l-6 71 84 33 c46 18 94 36 106 41 22 8 22 7 17
-35 -9 -63 32 -95 85 -66 43 22 83 184 84 335 0 187 -23 205 -63 49 -39 -148
-25 -136 -127 -108 -307 86 -427 70 -533 -73 -39 -52 -49 -60 -71 -56 -15 3
-64 -4 -110 -15 -46 -11 -140 -32 -209 -47 -471 -100 -834 -332 -1027 -655
-159 -266 -180 -460 -103 -955 16 -104 32 -221 36 -260 9 -108 -12 -285 -71
-580 -86 -430 -116 -651 -130 -960 -6 -116 6 -369 21 -450 5 -26 1 -32 -28
-48 -18 -10 -44 -34 -58 -54 -35 -51 -33 -150 4 -246 50 -133 90 -163 195
-153 37 3 78 9 93 12 26 6 26 5 33 -52 24 -202 88 -477 178 -764 85 -270 151
-632 208 -1153 l32 -287 -23 -105 c-21 -97 -25 -106 -49 -111 -267 -60 -510
-170 -704 -318 l-35 -27 -7 87 c-14 165 13 399 75 642 16 66 75 258 130 428
164 504 236 782 245 949 l5 90 -28 -105 c-56 -206 -96 -319 -237 -670 -271
-674 -333 -928 -322 -1308 6 -192 18 -272 43 -293 30 -25 140 -38 319 -39 99
0 241 -7 315 -15 191 -21 200 -23 200 -44 0 -37 49 -208 82 -286 69 -163 195
-325 253 -325 14 0 25 -4 25 -9 0 -18 -118 -453 -175 -646 -116 -392 -195
-640 -438 -1360 -579 -1721 -681 -2041 -846 -2646 -101 -370 -231 -939 -261
-1142 -10 -71 -10 -81 6 -98 9 -10 23 -19 31 -19 7 0 13 -5 13 -11 0 -6 14
-24 31 -40 l32 -30 -58 -127 c-32 -70 -89 -191 -126 -269 -38 -78 -69 -147
-69 -152 0 -5 -19 -31 -42 -58 -44 -52 -88 -135 -88 -169 0 -13 -14 -33 -34
-48 -77 -58 -116 -195 -136 -471 -24 -337 -60 -434 -280 -750 -131 -189 -176
-264 -200 -336 -13 -39 -32 -70 -51 -86 -65 -55 -96 -168 -86 -316 8 -124 21
-164 71 -213 52 -52 85 -59 351 -75 347 -20 762 0 1263 62 156 19 249 75 273
163 18 65 2 387 -22 456 -15 43 -19 82 -19 191 0 175 15 255 95 523 85 285
115 432 115 568 0 117 -15 181 -54 232 -27 35 -75 61 -213 116 -28 10 -33 17
-33 46 0 18 -5 45 -10 59 -8 22 -7 29 10 43 16 13 32 63 66 206 44 187 75 272
104 287 15 7 311 39 439 47 36 2 74 10 85 17 12 7 50 15 86 18 36 4 91 13 123
22 32 8 74 15 92 15 44 0 68 24 88 86 587 1835 908 2799 1532 4614 147 426
350 1018 452 1315 217 635 293 828 293 741 0 -38 28 -557 40 -736 32 -477 68
-827 124 -1197 101 -667 133 -1192 171 -2828 18 -773 62 -1569 96 -1724 13
-62 42 -101 75 -101 29 0 30 -17 9 -170 -25 -176 -75 -360 -98 -360 -7 0 -29
-11 -50 -25 -73 -50 -100 -151 -77 -291 8 -55 9 -79 1 -87 -6 -6 -11 -19 -11
-29 0 -12 -13 -21 -42 -29 -27 -7 -58 -27 -84 -53 -58 -58 -68 -109 -54 -290
22 -285 54 -452 94 -485 8 -7 17 -23 20 -37 4 -14 36 -91 72 -171 82 -184 99
-249 113 -445 l12 -156 -25 -27 c-33 -35 -50 -111 -50 -221 -1 -82 2 -96 31
-155 56 -113 98 -131 367 -159 805 -84 1284 -77 1486 23 80 39 110 80 110 147
0 57 -66 328 -85 350 -7 8 -24 41 -38 72 -36 81 -91 157 -212 293 -152 171
-197 243 -250 398 -47 142 -58 238 -59 547 l-1 285 -32 65 c-46 94 -103 149
-172 167 -31 8 -33 11 -36 64 -2 30 -10 71 -18 90 -20 50 -73 107 -120 131
l-40 20 6 78 c7 91 42 268 62 317 13 31 16 33 67 33 29 1 118 9 197 19 119 16
147 23 165 41 11 12 36 30 54 41 18 10 37 30 42 44 10 27 26 669 24 1020 -7
1751 -27 5264 -30 5341 l-5 101 73 7 c40 4 134 24 208 43 74 19 148 35 164 35
44 -1 62 13 82 63 19 50 16 168 -10 375 -11 87 -11 108 0 120 67 77 97 323 97
785 0 491 -36 871 -123 1270 -15 72 -31 153 -34 181 l-6 51 38 7 c44 7 78 39
92 87 14 45 1 334 -15 376 -17 39 -55 65 -109 73 -40 5 -41 6 -64 70 -91 254
-138 547 -222 1391 -46 461 -78 723 -115 925 -111 608 -296 972 -559 1095 -49
23 -160 59 -274 88 -310 81 -403 127 -455 225 -41 77 -117 160 -179 195 l-49
28 68 39 c86 50 226 184 290 276 143 207 210 420 220 693 3 110 8 148 23 175
33 63 61 174 67 263 4 55 11 91 19 98 8 6 14 29 14 51 0 32 6 45 30 66 32 28
40 71 18 90 -22 17 -99 34 -192 41 l-88 6 -60 243 -60 243 23 17 c46 32 100
86 115 113 22 43 18 101 -10 142 l-25 36 50 95 c78 149 95 131 -236 253 -612
225 -719 252 -1020 258 -99 1 -200 1 -225 -1z m335 -85 c141 -12 265 -37 413
-84 112 -36 670 -240 679 -248 7 -8 -24 -64 -79 -143 -43 -62 -48 -74 -39 -93
7 -11 19 -21 29 -21 24 0 38 -12 46 -36 7 -23 -29 -75 -64 -94 -16 -9 -21 -3
-35 48 -26 93 -36 111 -72 133 -45 28 -125 28 -186 1 -25 -11 -78 -42 -119
-70 -41 -28 -93 -56 -117 -63 -54 -16 -94 -6 -239 60 -222 101 -389 136 -622
128 -176 -6 -259 -25 -373 -84 -93 -49 -188 -146 -235 -242 -32 -64 -36 -83
-36 -145 0 -77 24 -144 83 -230 17 -25 31 -48 31 -51 0 -4 -18 -32 -40 -63
-23 -31 -48 -80 -56 -109 -12 -40 -21 -54 -37 -58 -12 -2 -76 -14 -142 -25
-66 -11 -134 -25 -152 -29 -30 -8 -31 -7 -37 23 -48 262 -36 735 24 928 22 73
35 89 207 252 134 126 207 171 359 219 104 33 294 73 414 86 188 22 246 23
395 10z m-159 -584 c116 -20 158 -34 344 -113 144 -61 160 -66 230 -66 83 -1
120 14 218 86 95 71 175 96 186 61 64 -218 186 -677 186 -703 0 -20 -57 -10
-111 19 -65 36 -201 75 -229 66 -30 -9 -44 -43 -31 -71 10 -23 36 -33 126 -49
l40 -8 -55 -24 c-74 -33 -114 -65 -134 -107 l-17 -36 -92 0 -92 0 -22 34 c-28
43 -122 90 -215 108 l-66 12 29 18 c35 21 37 50 8 79 -19 19 -29 21 -93 16
-56 -5 -89 -15 -156 -48 -81 -41 -90 -43 -210 -51 -183 -11 -348 -53 -363 -92
-4 -9 -27 -10 -98 -4 -52 5 -113 8 -136 6 -62 -4 -56 22 26 131 24 32 41 66
41 81 0 14 -23 62 -50 105 -80 127 -88 196 -33 296 72 133 198 219 373 254 90
18 290 18 396 0z m1356 -922 c38 -40 42 -93 8 -93 -22 0 -37 29 -47 88 -7 39
5 41 39 5z m-1034 -27 c40 -21 75 -63 69 -80 -9 -24 -40 -19 -67 9 -13 14 -29
25 -36 25 -6 0 -17 7 -24 15 -10 12 -10 18 0 30 15 19 24 19 58 1z m-1209 -88
c6 -40 14 -83 17 -96 l7 -23 -48 26 c-84 44 -176 31 -243 -35 -18 -18 -34 -31
-36 -29 -4 5 -26 118 -26 135 0 14 119 56 220 78 102 22 96 25 109 -56z m41
-1448 c85 -18 158 -36 163 -40 4 -3 1 -14 -6 -24 -12 -16 -28 -19 -103 -18
-52 0 -99 -5 -114 -13 -14 -7 -45 -15 -69 -18 -77 -10 -73 7 -80 -364 -1 -73
-1 -73 -28 -73 -71 0 -155 -63 -251 -187 l-40 -53 -7 39 c-10 61 13 301 39
404 48 190 118 323 191 365 52 29 101 27 305 -18z m1601 -90 c72 -20 140 -116
217 -302 46 -113 152 -410 152 -428 0 -4 -28 3 -61 17 -38 15 -75 23 -95 21
l-34 -4 -1 71 c0 38 -4 144 -8 235 -7 138 -12 174 -31 218 -32 73 -67 97 -150
98 -112 2 -116 3 -127 27 -9 20 -7 23 36 39 56 20 57 20 102 8z m-2124 -92
c-54 -134 -71 -181 -91 -258 -14 -51 -30 -137 -37 -193 -14 -119 -8 -402 9
-433 15 -28 60 -44 90 -33 12 5 30 23 40 40 41 77 136 210 195 274 l64 70 11
-35 c5 -19 15 -84 22 -145 17 -162 54 -422 120 -855 113 -734 135 -955 134
-1340 -1 -296 -9 -422 -54 -815 -55 -480 -70 -611 -82 -735 -15 -162 -17 -719
-4 -1435 10 -524 6 -584 -32 -618 -28 -23 -367 -97 -449 -97 -29 0 -35 6 -56
48 -166 329 -236 782 -209 1344 7 139 21 363 32 497 11 134 23 304 26 378 l7
134 31 -8 c53 -14 159 -5 173 13 34 47 45 230 17 286 -24 49 -63 86 -102 99
l-35 11 6 447 c3 245 11 570 17 721 13 287 8 708 -10 890 -15 152 -41 333 -51
350 -5 9 -9 -55 -9 -151 0 -146 -24 -615 -62 -1209 -7 -107 -13 -383 -13 -613
l0 -419 -40 6 c-203 30 -546 35 -747 11 -108 -12 -302 -49 -374 -70 -21 -7
-22 -3 -30 92 -13 143 -10 499 5 638 20 191 49 376 92 578 110 522 115 605 54
977 -67 410 -57 581 44 803 156 345 535 608 1009 702 70 14 154 34 187 45 71
22 109 25 102 8z m2618 -290 c28 -14 122 -51 210 -83 345 -123 440 -194 534
-396 109 -237 197 -539 255 -879 36 -210 61 -417 101 -830 44 -462 70 -683
101 -874 27 -168 87 -442 109 -507 27 -75 35 -69 -195 -128 -116 -30 -212 -52
-214 -50 -7 7 -101 388 -145 584 -78 355 -140 701 -186 1041 l-26 191 41 199
c47 229 71 323 107 412 22 57 24 66 10 79 -13 13 -17 11 -40 -19 -14 -18 -32
-53 -40 -78 -18 -55 -87 -349 -88 -376 -1 -52 -17 32 -33 176 -9 85 -19 175
-23 200 l-6 45 -8 -35 c-28 -123 -43 -319 -43 -560 0 -318 21 -526 95 -944 74
-417 159 -769 389 -1621 251 -933 356 -1396 424 -1877 35 -247 35 -248 16
-248 -29 0 -150 46 -360 137 -308 134 -528 210 -657 228 -29 4 -55 11 -58 15
-6 10 -68 388 -124 760 -185 1219 -263 2007 -291 2940 -14 459 -35 712 -95
1115 -41 281 -49 376 -50 575 0 170 17 360 32 360 2 0 25 -11 51 -24 48 -25
106 -80 157 -148 21 -30 34 -38 58 -38 59 0 82 50 58 126 -5 16 -24 81 -41
144 -32 116 -122 354 -167 443 l-24 48 58 -39 c32 -22 81 -51 108 -64z m-2131
-212 c43 -66 104 -136 220 -251 237 -236 402 -352 596 -417 84 -28 108 -32
210 -32 129 -1 181 12 288 71 151 83 310 285 363 463 l14 45 7 -45 c3 -25 7
-155 7 -290 1 -186 6 -281 21 -395 54 -397 92 -876 140 -1745 51 -936 85
-1361 143 -1806 l13 -101 -55 -36 c-139 -88 -362 -179 -569 -231 -53 -14 -224
-52 -380 -85 -492 -105 -670 -169 -856 -311 l-64 -48 -7 167 c-11 244 1 956
19 1156 9 94 31 296 50 450 124 993 116 1282 -74 2530 -63 413 -95 638 -105
745 -8 83 -31 176 -50 203 -8 12 -15 37 -14 57 0 31 1 33 12 16 7 -11 39 -60
71 -110z m-1069 -3326 c190 -16 356 -40 403 -57 59 -21 82 -60 82 -139 0 -34
-5 -75 -11 -92 -9 -26 -15 -30 -37 -26 -218 38 -448 50 -683 34 -107 -7 -201
-13 -209 -12 -28 1 -214 -29 -335 -54 -115 -25 -120 -25 -133 -7 -44 57 -76
187 -62 250 5 19 10 36 12 37 5 5 332 56 413 65 103 12 422 12 560 1z m4679
-222 c3 -29 6 -101 6 -159 l0 -107 -32 -6 c-18 -3 -103 -13 -188 -21 -139 -14
-212 -26 -261 -41 -14 -4 -22 15 -44 106 -15 61 -25 113 -23 116 3 2 115 34
249 70 134 36 251 72 259 80 23 22 27 18 34 -38z m-4416 -154 c2 -1 -10 -152
-27 -336 -56 -618 -67 -852 -51 -1113 14 -230 41 -416 90 -608 54 -214 71
-252 263 -610 184 -341 231 -494 197 -636 l-12 -53 -34 33 c-19 18 -34 42 -34
54 0 44 -50 62 -71 24 -6 -13 -8 -43 -4 -77 8 -72 24 -526 19 -531 -16 -17
-49 125 -94 399 -28 173 -55 325 -60 338 -11 25 -42 29 -59 8 -6 -8 -19 -47
-27 -87 -14 -62 -15 -122 -10 -379 7 -333 4 -358 -38 -306 -44 53 -131 394
-151 586 -9 93 -15 121 -26 114 -30 -18 18 -422 70 -601 l19 -62 -32 6 c-89
17 -185 152 -245 348 -12 38 -33 130 -46 205 -57 315 -73 341 -74 120 -1 -181
21 -311 74 -444 l24 -61 -34 39 c-80 95 -162 295 -190 466 -15 97 -20 310 -9
418 5 44 11 62 23 65 35 9 51 92 51 261 0 498 -88 998 -314 1792 -75 266 -102
378 -120 506 -4 33 -2 39 17 43 86 20 288 47 450 61 106 8 212 19 237 23 39 7
219 3 228 -5z m4362 -232 c0 -4 9 -118 20 -252 10 -135 25 -328 32 -430 15
-213 18 -1082 4 -1205 l-9 -80 -32 175 c-69 368 -164 768 -344 1440 -49 184
-89 335 -88 336 3 4 279 21 350 23 37 0 67 -3 67 -7z m-1182 -9442 l164 0 -5
-22 c-3 -13 -15 -66 -27 -118 -17 -69 -23 -129 -24 -217 -1 -68 -1 -123 -1
-123 0 0 -36 7 -80 15 -124 22 -358 18 -562 -9 -24 -4 -33 -1 -33 9 0 8 6 12
14 9 9 -4 15 8 19 39 3 24 17 82 30 128 14 46 35 133 48 193 l23 109 135 -7
c74 -3 208 -6 299 -6z m-4639 -75 c178 -24 325 -46 328 -48 2 -3 -23 -58 -55
-123 -61 -121 -162 -378 -162 -411 -1 -43 -11 -45 -120 -19 -148 36 -323 52
-440 39 -52 -5 -96 -9 -97 -8 -1 0 18 54 42 119 25 65 66 184 91 264 50 160
76 232 84 232 3 0 151 -20 329 -45z m4696 -515 c96 -25 151 -54 176 -93 18
-28 20 -43 15 -128 -4 -83 -44 -440 -50 -446 -1 -1 -51 13 -110 32 -146 47
-223 59 -320 52 -125 -10 -218 -45 -304 -114 -79 -64 -72 -76 20 -33 113 52
188 70 299 70 103 0 175 -14 317 -61 77 -26 92 -34 92 -52 0 -26 28 -57 51
-57 10 0 26 11 34 24 9 13 25 26 35 29 24 6 27 43 6 66 -12 14 -10 45 11 221
14 113 29 209 33 213 27 30 124 -55 145 -126 20 -68 19 -119 -7 -267 -52 -301
-17 -585 102 -822 56 -112 98 -172 211 -300 115 -128 151 -177 179 -243 38
-88 37 -89 -92 -81 -62 3 -399 9 -748 12 -740 8 -681 -1 -699 113 -6 36 -15
124 -21 195 -13 155 -37 234 -130 441 -37 83 -77 175 -88 206 -55 150 -68 384
-31 576 22 117 30 138 58 152 17 9 22 1 50 -79 38 -104 113 -228 119 -194 2
12 -18 115 -43 230 -71 324 -70 400 6 439 28 15 146 31 344 48 91 8 265 -4
340 -23z m-4963 -170 c104 -10 288 -44 326 -60 15 -7 22 -18 22 -37 0 -42 -62
-447 -70 -456 -4 -5 -45 -1 -91 7 -194 34 -360 28 -525 -20 -46 -13 -86 -24
-89 -24 -3 0 -5 20 -5 44 0 24 -7 80 -15 123 -23 116 -22 231 4 280 40 79 116
125 236 142 82 12 96 12 207 1z m-537 -390 c10 -30 34 -86 54 -125 20 -38 37
-73 39 -77 2 -4 -21 -18 -51 -33 -53 -25 -73 -47 -61 -66 3 -5 10 -9 15 -9 6
0 8 4 5 9 -11 17 20 30 125 56 207 50 417 53 595 7 66 -17 69 -19 72 -50 3
-26 10 -36 37 -49 31 -15 36 -15 59 1 14 9 26 21 26 26 0 6 11 10 25 10 37 0
43 27 13 56 l-25 25 27 160 c15 87 29 162 33 165 3 3 11 -4 17 -16 10 -19 17
-21 64 -15 102 13 122 -24 113 -204 -6 -133 -27 -222 -117 -511 -100 -323
-118 -453 -97 -700 8 -89 7 -98 -15 -140 -29 -57 -69 -83 -176 -116 -183 -56
-271 -68 -497 -68 -224 -1 -295 8 -480 60 -101 29 -301 109 -327 132 -10 8
-18 24 -18 35 0 25 64 137 184 322 172 267 238 421 256 604 6 53 14 209 19
346 7 203 12 258 26 290 l18 40 12 -55 c6 -30 20 -80 30 -110z m-591 -1615
c102 -60 339 -134 551 -171 145 -26 482 -26 620 0 129 24 261 68 354 117 40
22 75 38 78 36 2 -2 6 -40 10 -83 5 -74 4 -82 -18 -107 -21 -24 -37 -29 -124
-42 -151 -21 -528 -50 -815 -61 -185 -7 -618 10 -683 27 -49 13 -63 38 -78
137 -10 76 -7 201 7 224 3 4 17 -6 31 -22 14 -17 44 -41 67 -55z m5436 -16 c0
-11 10 -30 23 -43 l23 -23 609 -6 c336 -4 710 -10 832 -14 l221 -6 11 -58 c13
-62 6 -91 -24 -102 -54 -21 -333 -41 -580 -41 -276 0 -403 8 -814 49 -253 26
-270 31 -301 91 -18 36 -28 190 -11 180 6 -4 11 -16 11 -27z"/>
<path d="M5987 2545 c-91 -35 -137 -96 -137 -185 0 -162 175 -255 311 -165 58
38 94 117 86 191 -10 101 -72 162 -169 170 -32 2 -68 -2 -91 -11z"/>
<path d="M6005 1785 c-98 -18 -199 -48 -271 -80 -40 -18 -54 -29 -54 -44 0
-21 25 -30 32 -11 7 23 192 51 363 57 187 6 309 -5 417 -39 76 -23 95 -20 104
18 9 37 -27 69 -101 89 -88 24 -385 29 -490 10z"/>
<path d="M6094 1639 c-71 -12 -202 -55 -241 -79 -20 -12 -33 -28 -33 -40 0
-25 26 -26 33 -1 7 29 122 45 281 38 150 -6 245 -27 369 -84 124 -56 190 -48
173 20 -24 99 -360 183 -582 146z"/>
<path d="M6223 1396 c-175 -33 -351 -116 -245 -116 19 0 23 3 13 9 -23 15 103
33 262 38 134 5 158 3 272 -22 95 -21 133 -26 158 -19 58 17 41 70 -33 102
-48 21 -328 26 -427 8z"/>
<path d="M5870 975 c0 -9 133 -72 208 -99 164 -59 443 -92 639 -76 107 8 165
30 171 63 7 34 -36 40 -210 29 -245 -15 -452 4 -676 63 -90 24 -132 30 -132
20z"/>
<path d="M1214 2385 c-10 -8 -26 -15 -35 -15 -8 0 -36 -13 -62 -29 -125 -80
-114 -259 20 -338 38 -22 59 -27 112 -27 76 0 115 17 156 66 58 68 70 150 37
243 -14 40 -27 56 -67 83 -56 36 -126 44 -161 17z"/>
<path d="M1220 1714 c-14 -2 -59 -9 -100 -15 -83 -12 -215 -51 -243 -71 -11
-9 -16 -20 -11 -31 9 -23 28 -22 21 2 -4 16 4 21 57 31 218 44 518 20 695 -55
33 -14 73 -25 89 -25 63 0 68 65 8 94 -101 48 -394 88 -516 70z"/>
<path d="M1025 1495 c-44 -9 -109 -25 -145 -36 -129 -41 -113 -50 42 -23 70
12 127 15 233 11 145 -6 216 -19 348 -64 61 -20 84 -24 110 -17 27 8 32 15 32
39 0 39 -45 69 -127 85 -104 19 -400 22 -493 5z"/>
<path d="M1105 1289 c-95 -12 -237 -54 -310 -90 -33 -16 -52 -27 -43 -25 168
46 388 52 583 16 184 -35 201 -36 214 -11 23 43 -19 79 -115 99 -76 16 -249
22 -329 11z"/>
<path d="M1480 814 c-225 -56 -638 -60 -949 -8 -30 5 -33 3 -23 -9 28 -33 261
-89 447 -107 236 -24 602 19 675 78 19 16 21 22 11 40 -10 18 -20 22 -59 21
-26 -1 -72 -7 -102 -15z"/>
<path d="M3778 18416 c-108 -23 -112 -57 -6 -61 66 -3 93 -12 171 -59 41 -24
52 -27 73 -18 17 9 24 20 24 41 0 72 -136 122 -262 97z"/>
<path d="M5577 17945 c-93 -86 -184 -85 -267 0 -40 42 -81 46 -104 13 -24 -34
-20 -52 22 -95 131 -135 352 -107 424 55 15 34 17 46 8 58 -19 22 -31 17 -83
-31z"/>
</g>
</svg>
